<svg width="480" height="251" viewBox="0 0 480 251" fill="none" xmlns="http://www.w3.org/2000/svg">
<path d="M435.272 129.019L435.28 129.027L435.287 129.036C462.011 158.081 477.555 194.489 479.501 231.755C479.501 233.527 479.499 241.299 479.016 246.039L479.013 246.064V246.09C479.013 248.37 476.856 250.372 474.153 250.372H257.786C255.083 250.372 252.926 248.37 252.926 246.09V4.78266C252.926 2.50217 255.083 0.5 257.786 0.5H474.153C477.343 0.5 479.501 2.50217 479.501 5.21745V5.24805V5.27873V5.30947V5.34029V5.37117V5.40211V5.43313V5.46421V5.49535V5.52656V5.55784V5.58918V5.62059V5.65206V5.68359V5.71518V5.74684V5.77856V5.81034V5.84218V5.87408V5.90604V5.93806V5.97014V6.00228V6.03447V6.06673V6.09904V6.1314V6.16383V6.19631V6.22884V6.26143V6.29407V6.32677V6.35952V6.39232V6.42518V6.45808V6.49104V6.52405V6.55711V6.59022V6.62338V6.65659V6.68985V6.72315V6.75651V6.78991V6.82336V6.85685V6.89039V6.92397V6.95761V6.99128V7.025V7.05876V7.09257V7.12641V7.1603V7.19424V7.22821V7.26222V7.29628V7.33037V7.3645V7.39868V7.43289V7.46713V7.50142V7.53574V7.5701V7.6045V7.63893V7.67339V7.7079V7.74243V7.777V7.8116V7.84624V7.8809V7.9156V7.95033V7.98509V8.01989V8.05471V8.08956V8.12444V8.15935V8.19429V8.22925V8.26424V8.29926V8.33431V8.36938V8.40448V8.4396V8.47474V8.50991V8.5451V8.58032V8.61556V8.65082V8.6861V8.72141V8.75673V8.79207V8.82744V8.86282V8.89822V8.93364V8.96908V9.00454V9.04001V9.0755V9.11101V9.14653V9.18206V9.21761V9.25318V9.28876V9.32435V9.35995V9.39557V9.4312V9.46684V9.50249V9.53815V9.57382V9.6095V9.64519V9.68089V9.71659V9.75231V9.78803V9.82376V9.85949V9.89523V9.93097V9.96673V10.0025V10.0382V10.074V10.1098V10.1455V10.1813V10.2171V10.2528V10.2886V10.3244V10.3602V10.3959V10.4317V10.4675V10.5032V10.539V10.5748V10.6105V10.6463V10.682V10.7178V10.7535V10.7892V10.825V10.8607V10.8964V10.9321V10.9678V11.0035V11.0391V11.0748V11.1105V11.1461V11.1818V11.2174V11.253V11.2886V11.3242V11.3598V11.3953V11.4309V11.4664V11.5019V11.5374V11.5729V11.6084V11.6438V11.6792V11.7147V11.75V11.7854V11.8208V11.8561V11.8914V11.9267V11.962V11.9973V12.0325V12.0677V12.1029V12.138V12.1732V12.2083V12.2434V12.2785V12.3135V12.3485V12.3835V12.4184V12.4534V12.4883V12.5231V12.558V12.5928V12.6276V12.6623V12.697V12.7317V12.7664V12.801V12.8356V12.8702V12.9047V12.9392V12.9736V13.008V13.0424V13.0768V13.1111V13.1454V13.1796V13.2138V13.248V13.2821V13.3162V13.3502V13.3842V13.4182V13.4521V13.4859V13.5198V13.5536V13.5873V13.621V13.6547V13.6883V13.7219V13.7554V13.7889V13.8223V13.8557V13.889V13.9223V13.9556V13.9888V14.0219V14.055V14.088V14.121V14.154V14.1869V14.2197V14.2525V14.2852V14.3179V14.3505V14.3831V14.4156V14.4481V14.4805V14.5128V14.5451V14.5773V14.6095V14.6416V14.6737V14.7057V14.7376V14.7695V14.8013V14.8331V14.8648V14.8964V14.928V14.9595V14.991V15.0223V15.0537V15.0849V15.1161V15.1472V15.1783V15.2093V15.2402V15.2711V15.3019V15.3326V15.3632V15.3938V15.4243V15.4548V15.4851V15.5154V15.5457V15.5758V15.6059V15.6359V15.6659V15.6957V15.7255V15.7552V15.7849V15.8144V15.8439V15.8733V15.9027V15.9319V15.9611V15.9902V16.0192V16.0481V16.077V16.1058V16.1345V16.1631V16.1916V16.2201V16.2484V16.2767V16.3049V16.333V16.3611V16.389V16.4169V16.4447V16.4723V16.5V16.5275V16.5549V16.5822V16.6095V16.6366V16.6637V16.6907V16.7176V16.7444V16.7711V16.7977V16.8242V16.8506V16.877V16.9032V16.9294V16.9554V16.9814V17.0072V17.033V17.0586V17.0842V17.1097V17.1351V17.1603V17.1855V17.2106V17.2355V17.2604V17.2852V17.3099V17.3344V17.3589V17.3833V17.4075V17.4317V17.4557V17.4797V17.5035V17.5273V17.5509V17.5744V17.5978V17.6211V17.6443V17.6674V17.6904V17.7133V17.736V17.7587V17.7812V17.8037V17.826V17.8482V17.8703V17.8923V17.9141V17.9359V17.9575V17.9791V18.0005V18.0218V18.0429V18.064V18.0849V18.1058V18.1265V18.147V18.1675V18.1879V18.2081V18.2282V18.2482V18.268V18.2878V18.3074V18.3269V18.3463V18.3655V18.3846V18.4036V18.4225V18.4413V18.4599V18.4784V18.4968V18.515V18.5331V18.5511V18.5689V18.5867V18.6043V18.6217V18.6391V18.6563V18.6733V18.6903V18.7071V18.7238V18.7403V18.7567V18.773V18.7891V18.8051V18.821V18.8367V18.8523V18.8677V18.883V18.8982V18.9133V18.9282V18.9429V18.9575V18.972V18.9863V19.0005V19.0146V19.0285V19.0423V19.0559V19.0694V19.0827V19.0959V19.1089V19.1218V19.1346V19.1472V19.1596V19.1719V19.1841V19.1961V19.208V19.2197V19.2313V19.2427V19.2539V19.265V19.276V19.2868V19.2975V19.308V19.3183V19.3285V19.3385V19.3484V19.3582V19.3677V19.3771V19.3864V19.3955V19.4044V19.4132V19.4219V19.4303V19.4386V19.4468V19.4548V19.4626V19.4702V19.4777V19.4851V19.4922V19.4993V19.5061V19.5128V19.5193V19.5257V19.5318V19.5379V19.5437V19.5494V19.5521C477.555 56.3785 461.527 92.7903 435.282 122.278L435.282 122.277L435.272 122.288C433.654 124.213 433.654 127.094 435.272 129.019ZM387.418 222.967L387.416 222.957C384.473 206.765 376.141 191.034 364.4 177.503C362.785 175.584 360.143 175.154 357.685 175.154H357.584L357.491 175.194C348.261 179.094 338.539 182.131 328.805 184.736L328.79 184.74L328.775 184.745C326.686 185.444 325.218 186.971 324.679 188.713C324.138 190.466 324.549 192.406 326.154 193.845C334.875 202.493 341.636 212.848 344.531 224.041L344.535 224.054L344.539 224.068C345.059 225.691 345.984 226.998 347.574 227.885C349.142 228.759 351.31 229.198 354.274 229.198H381.564C385.229 229.198 387.962 226.364 387.418 222.967ZM363.737 149.154L363.745 149.15L363.754 149.146C377.928 142.169 390.636 133.447 401.876 123.418L404.8 120.809L407.724 118.2L407.732 118.194C409.675 116.459 411.641 114.706 413.607 112.513C436.573 88.0973 450.752 58.4422 454.667 27.4685C455.217 24.4686 452.433 21.6742 448.813 21.6742H418.112C416.548 21.6742 415.212 22.1409 414.198 22.9856C413.184 23.8297 412.522 25.0255 412.26 26.4302L412.258 26.4401L412.257 26.4501C408.861 49.8235 398.188 71.9021 380.716 90.0893L380.711 90.0945C378.273 92.7048 375.851 95.2975 372.946 97.8889L372.92 97.9128L372.896 97.9402C372.195 98.7753 371.369 99.5136 370.524 100.214C370.232 100.456 369.934 100.696 369.638 100.935C369.095 101.372 368.559 101.804 368.083 102.228C353.517 113.922 337.006 122.588 318.544 128.657L318.542 128.658C306.9 132.553 294.764 134.721 282.125 136.023C279.445 136.039 276.779 138.408 276.779 141.306V166.089C276.779 168.989 279.467 171.835 283.177 171.369C305.631 169.626 327.606 164.834 347.637 156.553C351.06 155.244 354.967 153.501 358.388 151.757C359.37 151.319 360.228 150.881 361.075 150.449L361.08 150.447C361.934 150.012 362.776 149.583 363.737 149.154ZM359.967 78.6348L359.979 78.6241L359.991 78.6126C374.181 64.2056 383.973 46.7377 388.383 28.387C388.918 26.4643 388.37 24.7388 386.873 23.525C385.409 22.3373 383.085 21.6742 380.102 21.6742H351.35C350.017 21.6742 348.697 22.1484 347.646 22.9107C346.598 23.6701 345.781 24.7418 345.504 25.9697C341.154 42.7776 329.554 57.4543 313.088 67.3948C303.879 72.583 293.218 76.4735 282.562 78.2025C281.026 78.4315 279.704 79.0089 278.761 79.9112C277.808 80.8215 277.266 82.0394 277.266 83.4792V108.697C277.266 111.599 279.959 114.447 283.673 113.976C307.143 111.358 329.157 103.067 347.264 89.5319L347.27 89.5271C350.19 87.3565 353.128 85.1714 356.069 82.5479L356.106 82.5144L356.137 82.4741C357.075 81.2184 358.494 79.9495 359.967 78.6348ZM419.953 145.762L419.946 145.755C418.875 144.561 417.292 143.864 415.731 143.689C414.181 143.517 412.568 143.852 411.458 144.834C404.178 150.462 396.411 155.66 388.639 160.428C385.41 161.892 384.891 165.756 387.032 168.154C400.616 184.605 409.347 204.517 412.257 224.423L412.258 224.432L412.26 224.442C412.522 225.847 413.184 227.043 414.198 227.887C415.212 228.731 416.548 229.198 418.112 229.198H448.813C450.391 229.198 451.973 228.614 453.105 227.604C454.244 226.588 454.939 225.124 454.668 223.411C451.244 195.489 439.507 168.443 419.953 145.762Z" stroke="white" stroke-opacity="0.3"/>
<path d="M120.024 172.68L120.033 172.672C121.507 171.358 122.926 170.089 123.864 168.833L123.894 168.793L123.932 168.759C126.872 166.135 129.811 163.95 132.731 161.779L132.737 161.775L120.024 172.68ZM120.024 172.68L120.015 172.689M120.024 172.68L120.015 172.689M120.015 172.689C105.817 186.667 96.0261 204.574 91.618 222.92C91.0825 224.843 91.6307 226.568 93.1271 227.782C94.5914 228.97 96.9156 229.633 99.899 229.633H128.65C129.984 229.633 131.303 229.159 132.355 228.396C133.403 227.637 134.219 226.565 134.497 225.337C138.847 208.53 150.446 193.853 166.912 183.912C176.121 178.724 186.782 174.834 197.438 173.105C198.975 172.876 200.296 172.298 201.24 171.396C202.192 170.486 202.735 169.268 202.735 167.828V142.61C202.735 139.708 200.042 136.86 196.327 137.331M120.015 172.689L196.327 137.331M196.327 137.331C172.858 139.949 150.845 148.239 132.738 161.774L196.327 137.331ZM44.7281 121.854L44.7209 121.845L44.7134 121.837C17.9894 92.791 2.44584 56.3831 0.5 19.1176V19.11V19.0995V19.0889V19.0781V19.0672V19.0562V19.045V19.0337V19.0223V19.0108V18.9991V18.9874V18.9755V18.9634V18.9513V18.939V18.9266V18.9141V18.9014V18.8887V18.8758V18.8628V18.8496V18.8364V18.823V18.8095V18.7959V18.7822V18.7683V18.7543V18.7402V18.726V18.7117V18.6972V18.6827V18.668V18.6532V18.6383V18.6233V18.6081V18.5929V18.5775V18.562V18.5464V18.5307V18.5149V18.4989V18.4829V18.4667V18.4504V18.434V18.4175V18.4009V18.3842V18.3674V18.3504V18.3334V18.3162V18.299V18.2816V18.2641V18.2465V18.2288V18.211V18.1931V18.1751V18.1569V18.1387V18.1204V18.1019V18.0834V18.0647V18.046V18.0271V18.0082V17.9891V17.9699V17.9507V17.9313V17.9118V17.8923V17.8726V17.8528V17.8329V17.813V17.7929V17.7727V17.7524V17.7321V17.7116V17.691V17.6704V17.6496V17.6288V17.6078V17.5868V17.5656V17.5444V17.5231V17.5017V17.4801V17.4585V17.4368V17.415V17.3931V17.3711V17.3491V17.3269V17.3046V17.2823V17.2598V17.2373V17.2147V17.192V17.1692V17.1463V17.1233V17.1003V17.0771V17.0539V17.0305V17.0071V16.9836V16.96V16.9364V16.9126V16.8888V16.8648V16.8408V16.8167V16.7926V16.7683V16.744V16.7195V16.695V16.6704V16.6458V16.621V16.5962V16.5713V16.5463V16.5212V16.496V16.4708V16.4455V16.4201V16.3947V16.3691V16.3435V16.3178V16.292V16.2662V16.2402V16.2142V16.1882V16.162V16.1358V16.1095V16.0831V16.0567V16.0301V16.0035V15.9769V15.9501V15.9233V15.8964V15.8695V15.8425V15.8154V15.7882V15.761V15.7337V15.7063V15.6789V15.6514V15.6238V15.5961V15.5684V15.5407V15.5128V15.4849V15.4569V15.4289V15.4008V15.3726V15.3444V15.3161V15.2877V15.2593V15.2308V15.2023V15.1737V15.145V15.1163V15.0875V15.0586V15.0297V15.0007V14.9717V14.9426V14.9134V14.8842V14.8549V14.8256V14.7962V14.7668V14.7373V14.7077V14.6781V14.6484V14.6187V14.5889V14.5591V14.5292V14.4992V14.4692V14.4392V14.4091V14.3789V14.3487V14.3184V14.2881V14.2578V14.2273V14.1969V14.1664V14.1358V14.1052V14.0745V14.0438V14.013V13.9822V13.9513V13.9204V13.8895V13.8585V13.8274V13.7963V13.7652V13.734V13.7028V13.6715V13.6402V13.6088V13.5774V13.546V13.5145V13.4829V13.4514V13.4197V13.3881V13.3564V13.3246V13.2928V13.261V13.2292V13.1972V13.1653V13.1333V13.1013V13.0692V13.0371V13.005V12.9728V12.9406V12.9084V12.8761V12.8438V12.8114V12.7791V12.7466V12.7142V12.6817V12.6492V12.6166V12.584V12.5514V12.5188V12.4861V12.4534V12.4206V12.3878V12.355V12.3222V12.2893V12.2564V12.2235V12.1906V12.1576V12.1246V12.0915V12.0585V12.0254V11.9923V11.9591V11.9259V11.8927V11.8595V11.8263V11.793V11.7597V11.7264V11.6931V11.6597V11.6263V11.5929V11.5595V11.526V11.4925V11.459V11.4255V11.392V11.3584V11.3249V11.2913V11.2577V11.224V11.1904V11.1567V11.123V11.0893V11.0556V11.0219V10.9881V10.9544V10.9206V10.8868V10.853V10.8191V10.7853V10.7514V10.7176V10.6837V10.6498V10.6159V10.582V10.5481V10.5141V10.4802V10.4462V10.4123V10.3783V10.3443V10.3103V10.2763V10.2423V10.2082V10.1742V10.1402V10.1061V10.0721V10.038V10.004V9.96989V9.93582V9.90174V9.86766V9.83357V9.79948V9.76538V9.73129V9.69719V9.66308V9.62898V9.59487V9.56077V9.52666V9.49255V9.45844V9.42433V9.39022V9.35611V9.32201V9.2879V9.2538V9.2197V9.1856V9.1515V9.11741V9.08332V9.04924V9.01515V8.98108V8.94701V8.91294V8.87888V8.84483V8.81078V8.77674V8.7427V8.70868V8.67466V8.64065V8.60664V8.57265V8.53867V8.50469V8.47073V8.43677V8.40283V8.36889V8.33497V8.30106V8.26716V8.23328V8.1994V8.16554V8.1317V8.09786V8.06404V8.03024V7.99645V7.96267V7.92891V7.89517V7.86144V7.82773V7.79404V7.76036V7.7267V7.69306V7.65944V7.62583V7.59225V7.55868V7.52514V7.49161V7.4581V7.42462V7.39115V7.35771V7.32429V7.29089V7.25751V7.22416V7.19083V7.15752V7.12424V7.09098V7.05775V7.02454V6.99135V6.95819V6.92506V6.89196V6.85888V6.82582V6.7928V6.7598V6.72683V6.69389V6.66098V6.62809V6.59524V6.56242V6.52962V6.49686V6.46413V6.43143V6.39876V6.36612V6.33351V6.30094V6.2684V6.2359V6.20342V6.17098V6.13858V6.10621V6.07387V6.04158V6.00931V5.97708V5.94489V5.91274V5.88062V5.84854V5.8165V5.7845V5.75253V5.72061V5.68872V5.65687V5.62507V5.5933V5.56157V5.52989V5.49825V5.46664V5.43508V5.40357V5.37209V5.34066V5.30927V5.27793V5.24663V5.21537V5.18416V5.153V5.12188V5.0908V5.05977V5.02879V4.99786V4.96697V4.93613V4.90534V4.8746V4.8439V4.81326V4.78266C0.5 2.52834 2.62732 0.5 5.84774 0.5H221.727C224.43 0.5 226.587 2.50217 226.587 4.78266V246.09C226.587 248.37 224.43 250.372 221.727 250.372H5.36043C2.65756 250.372 0.5 248.37 0.5 246.09V246.059V246.028V245.998V245.967V245.936V245.905V245.874V245.843V245.812V245.781V245.749V245.718V245.687V245.655V245.624V245.592V245.56V245.529V245.497V245.465V245.433V245.401V245.369V245.337V245.305V245.273V245.24V245.208V245.176V245.143V245.111V245.078V245.046V245.013V244.98V244.948V244.915V244.882V244.849V244.816V244.783V244.75V244.717V244.684V244.651V244.617V244.584V244.551V244.517V244.484V244.45V244.417V244.383V244.35V244.316V244.282V244.248V244.215V244.181V244.147V244.113V244.079V244.045V244.011V243.977V243.943V243.908V243.874V243.84V243.806V243.771V243.737V243.703V243.668V243.634V243.599V243.565V243.53V243.496V243.461V243.426V243.392V243.357V243.322V243.287V243.252V243.218V243.183V243.148V243.113V243.078V243.043V243.008V242.973V242.938V242.903V242.868V242.832V242.797V242.762V242.727V242.692V242.656V242.621V242.586V242.55V242.515V242.48V242.444V242.409V242.373V242.338V242.303V242.267V242.232V242.196V242.161V242.125V242.09V242.054V242.018V241.983V241.947V241.912V241.876V241.84V241.805V241.769V241.733V241.698V241.662V241.626V241.591V241.555V241.519V241.483V241.448V241.412V241.376V241.34V241.305V241.269V241.233V241.197V241.162V241.126V241.09V241.054V241.019V240.983V240.947V240.911V240.875V240.84V240.804V240.768V240.732V240.697V240.661V240.625V240.589V240.554V240.518V240.482V240.446V240.411V240.375V240.339V240.304V240.268V240.232V240.197V240.161V240.125V240.09V240.054V240.019V239.983V239.947V239.912V239.876V239.841V239.805V239.77V239.734V239.699V239.663V239.628V239.592V239.557V239.522V239.486V239.451V239.416V239.38V239.345V239.31V239.275V239.239V239.204V239.169V239.134V239.099V239.064V239.029V238.994V238.959V238.924V238.889V238.854V238.819V238.784V238.749V238.714V238.68V238.645V238.61V238.575V238.541V238.506V238.472V238.437V238.402V238.368V238.333V238.299V238.265V238.23V238.196V238.162V238.128V238.093V238.059V238.025V237.991V237.957V237.923V237.889V237.855V237.821V237.787V237.754V237.72V237.686V237.652V237.619V237.585V237.552V237.518V237.485V237.451V237.418V237.385V237.352V237.318V237.285V237.252V237.219V237.186V237.153V237.12V237.087V237.055V237.022V236.989V236.957V236.924V236.892V236.859V236.827V236.794V236.762V236.73V236.698V236.665V236.633V236.601V236.569V236.538V236.506V236.474V236.442V236.411V236.379V236.348V236.316V236.285V236.253V236.222V236.191V236.16V236.129V236.098V236.067V236.036V236.005V235.975V235.944V235.913V235.883V235.852V235.822V235.792V235.761V235.731V235.701V235.671V235.641V235.611V235.582V235.552V235.522V235.493V235.463V235.434V235.404V235.375V235.346V235.317V235.288V235.259V235.23V235.201V235.173V235.144V235.115V235.087V235.059V235.03V235.002V234.974V234.946V234.918V234.89V234.862V234.835V234.807V234.78V234.752V234.725V234.698V234.67V234.643V234.616V234.59V234.563V234.536V234.509V234.483V234.456V234.43V234.404V234.378V234.352V234.326V234.3V234.274V234.248V234.223V234.197V234.172V234.147V234.122V234.097V234.072V234.047V234.022V233.997V233.973V233.948V233.924V233.9V233.875V233.851V233.827V233.804V233.78V233.756V233.733V233.709V233.686V233.663V233.64V233.617V233.594V233.571V233.548V233.526V233.503V233.481V233.459V233.437V233.415V233.393V233.371V233.35V233.328V233.307V233.285V233.264V233.243V233.222V233.201V233.181V233.16V233.14V233.119V233.099V233.079V233.059V233.039V233.019V233V232.98V232.961V232.942V232.922V232.903V232.885V232.866V232.847V232.829V232.81V232.792V232.774V232.756V232.738V232.72V232.703V232.685V232.668V232.651V232.634V232.617V232.6V232.583V232.567V232.55V232.534V232.518V232.502V232.486V232.47V232.455V232.439V232.424V232.409V232.394V232.379V232.364V232.35V232.335V232.321V232.307V232.293V232.279V232.265V232.251V232.238V232.224V232.211V232.198V232.185V232.173V232.16V232.147V232.135V232.123V232.111V232.099V232.087V232.076V232.064V232.053V232.042V232.031V232.02V232.01V231.999V231.989V231.979V231.969V231.959V231.949V231.939V231.93V231.921V231.912V231.903V231.894V231.885V231.877V231.868V231.86V231.852V231.845V231.837V231.829V231.822V231.815V231.808V231.801V231.794V231.788V231.781V231.775V231.769V231.763V231.758V231.755C2.44571 194.492 17.9879 158.515 44.7183 128.595L44.7233 128.59L44.7281 128.584C46.3464 126.659 46.3464 123.779 44.7281 121.854ZM92.5829 28.3402L92.5828 28.3403L92.5847 28.3506C95.5275 44.5418 103.86 60.2728 115.6 73.8039C116.421 74.7786 117.624 75.3597 118.829 75.6995C120.042 76.0412 121.308 76.153 122.315 76.153H122.417L122.51 76.1136C131.74 72.2128 141.462 69.1761 151.196 66.5707L151.211 66.5667L151.225 66.5619C153.315 65.8628 154.782 64.3364 155.321 62.594C155.863 60.8416 155.451 58.9013 153.846 57.4627C145.125 48.8148 138.364 38.4588 135.47 27.2664L135.466 27.2526L135.462 27.2391C134.942 25.6163 134.017 24.3087 132.427 23.4223C130.859 22.5479 128.69 22.1089 125.727 22.1089H98.437C94.7712 22.1089 92.0389 24.9428 92.5829 28.3402ZM72.2766 132.672L72.2558 132.69L72.2372 132.711C71.2727 133.787 70.3072 134.756 69.3314 135.736L69.3274 135.74C68.3571 136.714 67.3766 137.698 66.3951 138.792C43.4314 162.77 28.7605 192.426 25.3326 223.408C24.7863 226.406 27.5693 229.198 31.188 229.198H61.8886C63.4525 229.198 64.7881 228.731 65.8025 227.887C66.8162 227.043 67.4782 225.847 67.7406 224.442L67.7424 224.432L67.7439 224.422C71.1398 201.049 81.8126 178.97 99.285 160.783L99.2897 160.778C101.728 158.168 104.15 155.575 107.054 152.983L107.081 152.96L107.104 152.932C107.806 152.097 108.632 151.359 109.477 150.658C109.769 150.417 110.067 150.177 110.363 149.938C110.905 149.501 111.441 149.069 111.918 148.644C126.483 136.95 142.994 128.284 161.456 122.215L161.459 122.215C173.101 118.319 185.237 116.151 197.875 114.849C200.555 114.834 203.222 112.465 203.222 109.566V84.7835C203.222 81.8834 200.533 79.0376 196.823 79.5033C174.369 81.2465 152.394 86.0381 132.364 94.3189C128.941 95.6282 125.034 97.3711 121.612 99.115C120.631 99.5533 119.772 99.9912 118.925 100.423L118.921 100.425C118.067 100.861 117.225 101.29 116.264 101.718L116.255 101.722L116.247 101.726C102.073 108.704 89.365 117.425 78.1244 127.454L78.1129 127.465L78.1015 127.475L78.0901 127.485L78.0787 127.495L78.0673 127.505L78.0558 127.516L78.0444 127.526L78.033 127.536L78.0216 127.546L78.0102 127.556L77.9987 127.567L77.9873 127.577L77.9759 127.587L77.9645 127.597L77.953 127.607L77.9416 127.617L77.9302 127.628L77.9188 127.638L77.9074 127.648L77.8959 127.658L77.8845 127.668L77.8731 127.679L77.8617 127.689L77.8503 127.699L77.8388 127.709L77.8274 127.719L77.816 127.73L77.8046 127.74L77.7932 127.75L77.7817 127.76L77.7703 127.77L77.7589 127.781L77.7475 127.791L77.736 127.801L77.7246 127.811L77.7132 127.821L77.7018 127.831L77.6904 127.842L77.6789 127.852L77.6675 127.862L77.6561 127.872L77.6447 127.882L77.6332 127.893L77.6218 127.903L77.6104 127.913L77.599 127.923L77.5876 127.933L77.5761 127.944L77.5647 127.954L77.5533 127.964L77.5419 127.974L77.5305 127.984L77.519 127.994L77.5076 128.005L77.4962 128.015L77.4848 128.025L77.4734 128.035L77.4619 128.045L77.4505 128.056L77.4391 128.066L77.4277 128.076L77.4162 128.086L77.4048 128.096L77.3934 128.107L77.382 128.117L77.3706 128.127L77.3591 128.137L77.3477 128.147L77.3363 128.158L77.3249 128.168L77.3135 128.178L77.302 128.188L77.2906 128.198L77.2792 128.208L77.2678 128.219L77.2563 128.229L77.2449 128.239L77.2335 128.249L77.2221 128.259L77.2107 128.27L77.1992 128.28L77.1878 128.29L77.1764 128.3L77.165 128.31L77.1535 128.321L77.1421 128.331L77.1307 128.341L77.1193 128.351L77.1079 128.361L77.0964 128.372L77.085 128.382L77.0736 128.392L77.0622 128.402L77.0508 128.412L77.0393 128.423L77.0279 128.433L77.0165 128.443L77.0051 128.453L76.9937 128.463L76.9822 128.473L76.9708 128.484L76.9594 128.494L76.948 128.504L76.9365 128.514L76.9251 128.524L76.9137 128.535L76.9023 128.545L76.8909 128.555L76.8794 128.565L76.868 128.575L76.8566 128.586L76.8452 128.596L76.8338 128.606L76.8223 128.616L76.8109 128.626L76.7995 128.636L76.7881 128.647L76.7766 128.657L76.7652 128.667L76.7538 128.677L76.7424 128.687L76.731 128.698L76.7195 128.708L76.7081 128.718L76.6967 128.728L76.6853 128.738L76.6739 128.749L76.6624 128.759L76.651 128.769L76.6396 128.779L76.6282 128.789L76.6167 128.8L76.6053 128.81L76.5939 128.82L76.5825 128.83L76.5711 128.84L76.5596 128.85L76.5482 128.861L76.5368 128.871L76.5254 128.881L76.514 128.891L76.5025 128.901L76.4911 128.912L76.4797 128.922L76.4683 128.932L76.4568 128.942L76.4454 128.952L76.434 128.963L76.4226 128.973L76.4112 128.983L76.3997 128.993L76.3883 129.003L76.3769 129.014L76.3655 129.024L76.3541 129.034L76.3426 129.044L76.3312 129.054L76.3198 129.064L76.3084 129.075L76.297 129.085L76.2855 129.095L76.2741 129.105L76.2627 129.115L76.2513 129.126L76.2398 129.136L76.2284 129.146L76.217 129.156L76.2056 129.166L76.1942 129.177L76.1827 129.187L76.1713 129.197L76.1599 129.207L76.1485 129.217L76.137 129.228L76.1256 129.238L76.1142 129.248L76.1028 129.258L76.0914 129.268L76.0799 129.278L76.0685 129.289L76.0571 129.299L76.0457 129.309L76.0343 129.319L76.0228 129.329L76.0114 129.34L76 129.35L75.9886 129.36L75.9771 129.37L75.9657 129.38L75.9543 129.391L75.9429 129.401L75.9315 129.411L75.92 129.421L75.9086 129.431L75.8972 129.442L75.8858 129.452L75.8744 129.462L75.8629 129.472L75.8515 129.482L75.8401 129.492L75.8287 129.503L75.8173 129.513L75.8058 129.523L75.7944 129.533L75.783 129.543L75.7716 129.554L75.7601 129.564L75.7487 129.574L75.7373 129.584L75.7259 129.594L75.7145 129.605L75.703 129.615L75.6916 129.625L75.6802 129.635L75.6688 129.645L75.6573 129.656L75.6459 129.666L75.6345 129.676L75.6231 129.686L75.6117 129.696L75.6002 129.706L75.5888 129.717L75.5774 129.727L75.566 129.737L75.5546 129.747L75.5431 129.757L75.5317 129.768L75.5203 129.778L75.5089 129.788L75.4975 129.798L75.486 129.808L75.4746 129.819L75.4632 129.829L75.4518 129.839L75.4403 129.849L75.4289 129.859L75.4175 129.87L75.4061 129.88L75.3947 129.89L75.3832 129.9L75.3718 129.91L75.3604 129.92L75.349 129.931L75.3376 129.941L75.3261 129.951L75.3147 129.961L75.3033 129.971L75.2919 129.982L75.2804 129.992L75.269 130.002L75.2576 130.012L75.2462 130.022L75.2348 130.033L75.2233 130.043L75.2119 130.053L75.2005 130.063L75.1891 130.073L75.1777 130.084L75.1662 130.094L75.1548 130.104L75.1434 130.114L75.132 130.124L75.1205 130.134L75.1091 130.145L75.0977 130.155L75.0863 130.165L75.0749 130.175L75.0634 130.185L75.052 130.196L75.0406 130.206L75.0292 130.216L75.0178 130.226L75.0063 130.236L74.9949 130.247L74.9835 130.257L74.9721 130.267L74.9606 130.277L74.9492 130.287L74.9378 130.298L74.9264 130.308L74.915 130.318L74.9035 130.328L74.8921 130.338L74.8807 130.348L74.8693 130.359L74.8579 130.369L74.8464 130.379L74.835 130.389L74.8236 130.399L74.8122 130.41L74.8008 130.42L74.7893 130.43L74.7779 130.44L74.7665 130.45L74.7551 130.461L74.7436 130.471L74.7322 130.481L74.7208 130.491L74.7094 130.501L74.698 130.512L74.6865 130.522L74.6751 130.532L74.6637 130.542L74.6523 130.552L74.6408 130.562L74.6294 130.573L74.618 130.583L74.6066 130.593L74.5952 130.603L74.5837 130.613L74.5723 130.624L74.5609 130.634L74.5495 130.644L74.5381 130.654L74.5266 130.664L74.5152 130.675L74.5038 130.685L74.4924 130.695L74.4809 130.705L74.4695 130.715L74.4581 130.726L74.4467 130.736L74.4353 130.746L74.4238 130.756L74.4124 130.766L74.401 130.776L74.3896 130.787L74.3782 130.797L74.3667 130.807L74.3553 130.817L74.3439 130.827L74.3325 130.838L74.3211 130.848L74.3096 130.858L74.2982 130.868L74.2868 130.878L74.2754 130.889L74.2639 130.899L74.2525 130.909L74.2411 130.919L74.2297 130.929L74.2183 130.94L74.2068 130.95L74.1954 130.96L74.184 130.97L74.1726 130.98L74.1611 130.99L74.1497 131.001L74.1383 131.011L74.1269 131.021L74.1155 131.031L74.104 131.041L74.0926 131.052L74.0812 131.062L74.0698 131.072L74.0584 131.082L74.0469 131.092L74.0355 131.103L74.0241 131.113L74.0127 131.123L74.0013 131.133L73.9898 131.143L73.9784 131.154L73.967 131.164L73.9556 131.174L73.9441 131.184L73.9327 131.194L73.9213 131.204L73.9099 131.215L73.8985 131.225L73.887 131.235L73.8756 131.245L73.8642 131.255L73.8528 131.266L73.8414 131.276L73.8299 131.286L73.8185 131.296L73.8071 131.306L73.7957 131.317L73.7842 131.327L73.7728 131.337L73.7614 131.347L73.75 131.357L73.7386 131.368L73.7271 131.378L73.7157 131.388L73.7043 131.398L73.6929 131.408L73.6814 131.418L73.67 131.429L73.6586 131.439L73.6472 131.449L73.6358 131.459L73.6243 131.469L73.6129 131.48L73.6015 131.49L73.5901 131.5L73.5787 131.51L73.5672 131.52L73.5558 131.531L73.5444 131.541L73.533 131.551L73.5216 131.561L73.5101 131.571L73.4987 131.581L73.4873 131.592L73.4759 131.602L73.4644 131.612L73.453 131.622L73.4416 131.632L73.4302 131.643L73.4188 131.653L73.4073 131.663L73.3959 131.673L73.3845 131.683L73.3731 131.694L73.3617 131.704L73.3502 131.714L73.3388 131.724L73.3274 131.734L73.316 131.745L73.3046 131.755L73.2931 131.765L73.2817 131.775L73.2703 131.785L73.2589 131.796L73.2474 131.806L73.236 131.816L73.2246 131.826L73.2132 131.836L73.2018 131.846L73.1903 131.857L73.1789 131.867L73.1675 131.877L73.1561 131.887L73.1446 131.897L73.1332 131.908L73.1218 131.918L73.1104 131.928L73.099 131.938L73.0875 131.948L73.0761 131.959L73.0647 131.969L73.0533 131.979L73.0419 131.989L73.0304 131.999L73.019 132.009L73.0076 132.02L72.9962 132.03L72.9847 132.04L72.9733 132.05L72.9619 132.06L72.9505 132.071L72.9391 132.081L72.9276 132.091L72.9162 132.101L72.9048 132.111L72.8934 132.122L72.882 132.132L72.8705 132.142L72.8591 132.152L72.8477 132.162L72.8363 132.173L72.8249 132.183L72.8134 132.193L72.802 132.203L72.7906 132.213L72.7792 132.223L72.7677 132.234L72.7563 132.244L72.7449 132.254L72.7335 132.264L72.7221 132.274L72.7106 132.285L72.6992 132.295L72.6878 132.305L72.6764 132.315L72.6649 132.325L72.6535 132.336L72.6421 132.346L72.6307 132.356L72.6193 132.366L72.6078 132.376L72.5964 132.387L72.585 132.397L72.5736 132.407L72.5622 132.417L72.5507 132.427L72.5393 132.437L72.5279 132.448L72.5165 132.458L72.5051 132.468L72.4936 132.478L72.4822 132.488L72.4708 132.499L72.4594 132.509L72.4479 132.519L72.4365 132.529L72.4251 132.539L72.4137 132.55L72.4023 132.56L72.3908 132.57L72.3794 132.58L72.368 132.59L72.3566 132.601L72.3452 132.611L72.3337 132.621L72.3223 132.631L72.3109 132.641L72.2995 132.651L72.288 132.662L72.2766 132.672ZM60.044 105.54L60.0491 105.546L60.0544 105.552C61.1249 106.746 62.7125 107.448 64.2881 107.565C65.8501 107.681 67.4631 107.225 68.5645 106.022C75.8378 100.4 83.5971 95.2076 91.3616 90.4439C94.5905 88.9808 95.1099 85.1162 92.9685 82.7183C79.3849 66.2675 70.6538 46.3553 67.7438 26.4497L67.7424 26.4399L67.7406 26.4302C67.4782 25.0255 66.8162 23.8297 65.8025 22.9856C64.7881 22.1409 63.4525 21.6742 61.8886 21.6742H31.188C27.5681 21.6742 24.7844 24.468 25.3331 27.4676C28.7593 55.3902 40.9835 82.8655 60.044 105.54Z" stroke="white" stroke-opacity="0.3"/>
</svg>
